<?xml version="1.0" encoding="UTF-8"?>
<svg xmlns="http://www.w3.org/2000/svg" width="229" height="45" viewBox="0 0 229 45" fill="none">
  <g clip-path="url(#clip0_195_17973)">
    <mask id="mask0_195_17973" style="mask-type:luminance" maskUnits="userSpaceOnUse" x="35" y="0" width="194" height="46">
      <path d="M35.8559 43.2308C35.707 43.1152 35.6065 42.9481 35.5739 42.762C35.5413 42.576 35.5791 42.3845 35.6798 42.2249L36.8152 40.2321C37.047 39.8398 37.5127 39.8398 37.9495 40.0902C38.8393 40.703 39.8693 41.0798 40.9435 41.1855C43.0082 41.1855 44.3977 39.7806 44.3977 36.7774V14.5702C44.4029 14.3432 44.4973 14.1275 44.6602 13.9699C44.8232 13.8123 45.0416 13.7256 45.2679 13.7286H47.9109C48.1378 13.7247 48.357 13.811 48.5207 13.9687C48.6844 14.1264 48.7792 14.3426 48.7845 14.5702V36.8031C48.7845 42.2506 45.4127 45.0001 41.056 45.0001C39.1701 45.036 37.3308 44.4103 35.8559 43.2308ZM220.687 27.9902C220.656 27.1591 220.873 26.3376 221.31 25.6312C221.748 24.9248 222.386 24.3657 223.143 24.0258C223.899 23.6858 224.74 23.5805 225.557 23.7234C226.374 23.8663 227.129 24.2508 227.727 24.8277C228.324 25.4045 228.736 26.1472 228.909 26.9605C229.082 27.7738 229.009 28.6205 228.699 29.3918C228.389 30.1632 227.857 30.824 227.17 31.2894C226.482 31.7549 225.672 32.0036 224.843 32.0038C224.308 32.014 223.775 31.9183 223.276 31.7221C222.778 31.5259 222.322 31.2331 221.936 30.8604C221.55 30.4877 221.242 30.0424 221.027 29.5499C220.813 29.0575 220.697 28.5274 220.687 27.9902ZM221.124 27.9902C221.096 28.7339 221.29 29.4691 221.682 30.1013C222.073 30.7335 222.645 31.2338 223.322 31.538C223.999 31.8422 224.751 31.9364 225.482 31.8085C226.213 31.6806 226.89 31.3364 227.424 30.8201C227.959 30.3039 228.327 29.6391 228.482 28.9113C228.637 28.1834 228.572 27.4256 228.295 26.7353C228.017 26.045 227.54 25.4536 226.925 25.0371C226.31 24.6206 225.585 24.398 224.843 24.3979C224.364 24.3874 223.887 24.4721 223.44 24.647C222.993 24.8219 222.585 25.0837 222.239 25.4173C221.893 25.7509 221.617 26.1497 221.425 26.5909C221.234 27.032 221.131 27.5068 221.123 27.9879L221.124 27.9902ZM145.761 22.4655C145.761 17.3242 149.248 13.0613 154.916 13.0613C156.018 13.0079 157.119 13.1823 158.151 13.5738C159.182 13.9653 160.122 14.5655 160.913 15.337C161.703 16.1086 162.327 17.035 162.745 18.0586C163.164 19.0823 163.368 20.1814 163.345 21.2874C163.345 22.0173 163.345 23.0578 162.646 23.0578H147.798C147.831 24.9633 148.613 26.7784 149.974 28.1083C151.335 29.4383 153.164 30.1755 155.064 30.1596C157.014 30.1402 158.919 29.5654 160.556 28.5021C160.962 28.2226 161.169 28.1936 161.4 28.5021L161.863 29.1213C162.009 29.2889 161.95 29.5683 161.688 29.8511C159.715 31.2414 157.358 31.9777 154.948 31.9568C149.251 31.9523 145.761 27.7107 145.761 22.4655ZM147.825 21.426H161.308C161.308 17.9165 159.129 14.8563 154.915 14.8563C153.109 14.7882 151.349 15.4407 150.02 16.6711C148.692 17.9015 147.904 19.6096 147.828 21.4216L147.825 21.426ZM189.328 26.8401V15.2442H187.151C186.684 15.2442 186.593 15.0206 186.593 14.6563V13.9264C186.593 13.6179 186.825 13.4793 187.151 13.4793H189.328V8.59285C189.327 8.51359 189.342 8.43503 189.373 8.36193C189.404 8.28884 189.449 8.22273 189.505 8.16764C189.562 8.11255 189.63 8.06961 189.703 8.04145C189.777 8.01329 189.856 8.00049 189.935 8.00383L190.715 7.94794C190.872 7.95107 191.021 8.01335 191.134 8.12234C191.247 8.23133 191.314 8.379 191.323 8.53584V13.4771H197.805C197.884 13.4735 197.963 13.486 198.037 13.514C198.111 13.5421 198.179 13.5849 198.236 13.6401C198.293 13.6952 198.338 13.7614 198.369 13.8347C198.4 13.9079 198.415 13.9867 198.414 14.0661V14.6551C198.419 14.7356 198.406 14.816 198.377 14.891C198.347 14.966 198.302 15.0337 198.244 15.0896C198.186 15.1454 198.117 15.188 198.041 15.2145C197.966 15.241 197.885 15.2507 197.805 15.243H191.333V26.7283C191.333 28.834 191.565 30.0143 193.746 30.0143C195.231 29.9264 196.678 29.5141 197.988 28.8061C198.045 28.7586 198.113 28.7248 198.185 28.7073C198.257 28.6899 198.333 28.6892 198.406 28.7054C198.478 28.7215 198.546 28.7541 198.605 28.8006C198.663 28.8471 198.71 28.9063 198.742 28.9737L199.063 29.5069C199.11 29.5635 199.144 29.63 199.162 29.7014C199.181 29.7729 199.183 29.8475 199.169 29.9199C199.155 29.9924 199.125 30.0608 199.082 30.1202C199.038 30.1796 198.982 30.2286 198.917 30.2635C197.323 31.3474 195.44 31.925 193.514 31.921C189.645 31.9222 189.328 29.7047 189.328 26.8401ZM164.488 25.9124C164.395 22.4878 167.33 19.8769 172.245 19.8769C173.848 19.8997 175.437 20.175 176.954 20.6928C176.954 16.7351 176.547 14.7423 172.857 14.7423C170.934 14.7522 169.034 15.1632 167.278 15.9494C167.209 15.9835 167.133 16.0008 167.056 16C166.98 15.9991 166.904 15.9801 166.836 15.9445C166.768 15.9089 166.709 15.8577 166.665 15.7951C166.62 15.7324 166.591 15.6601 166.579 15.5839L166.349 15.0519C166.316 14.9899 166.297 14.9211 166.294 14.8508C166.291 14.7805 166.304 14.7105 166.332 14.646C166.36 14.5815 166.402 14.5241 166.456 14.4783C166.509 14.4324 166.572 14.3993 166.639 14.3813C168.635 13.4353 170.825 12.9732 173.032 13.0323C178.726 13.0323 178.961 16.3182 178.961 20.894V30.8883C178.952 31.0452 178.884 31.1928 178.771 31.3018C178.659 31.4108 178.509 31.4731 178.352 31.4762H177.795C177.479 31.4762 177.332 31.3097 177.238 30.9699L177.071 29.337C175.285 30.9399 172.985 31.8469 170.588 31.8931C169.786 31.9425 168.982 31.8228 168.228 31.5417C167.475 31.2606 166.788 30.8243 166.213 30.2609C165.637 29.6975 165.186 29.0196 164.887 28.2706C164.589 27.5217 164.45 26.7184 164.48 25.9124H164.488ZM166.285 25.9124C166.271 26.4929 166.378 27.07 166.598 27.6067C166.819 28.1435 167.149 28.6281 167.568 29.0296C167.986 29.431 168.483 29.7405 169.027 29.9381C169.572 30.1358 170.151 30.2173 170.729 30.1775C171.895 30.1615 173.046 29.9067 174.11 29.4287C175.175 28.9507 176.131 28.2596 176.92 27.3978V22.4655C175.428 21.8397 173.828 21.5157 172.211 21.5121C168.667 21.5076 166.282 23.2769 166.282 25.9158L166.285 25.9124ZM104.267 22.5135C104.278 20.688 104.827 18.9065 105.845 17.3937C106.864 15.8809 108.307 14.7046 109.991 14.0133C111.675 13.322 113.526 13.1466 115.31 13.5093C117.094 13.8719 118.73 14.7564 120.013 16.0511C121.296 17.3457 122.168 18.9926 122.519 20.7839C122.87 22.5751 122.685 24.4305 121.985 26.116C121.286 27.8015 120.105 29.2415 118.591 30.2543C117.077 31.2672 115.298 31.8075 113.478 31.807C112.264 31.8037 111.064 31.5606 109.944 31.0917C108.825 30.6228 107.808 29.9372 106.953 29.0742C106.098 28.2112 105.42 27.1876 104.96 26.0619C104.499 24.9362 104.263 23.7304 104.267 22.5135ZM108.334 22.4878C108.289 23.1934 108.389 23.9008 108.627 24.5662C108.865 25.2317 109.237 25.8411 109.719 26.3568C110.201 26.8725 110.783 27.2836 111.43 27.5646C112.077 27.8456 112.774 27.9906 113.479 27.9906C114.184 27.9906 114.882 27.8456 115.528 27.5646C116.175 27.2836 116.758 26.8725 117.24 26.3568C117.722 25.8411 118.094 25.2317 118.332 24.5662C118.57 23.9008 118.669 23.1934 118.624 22.4878C118.651 21.7932 118.538 21.1002 118.292 20.4505C118.045 19.8007 117.671 19.2076 117.19 18.7066C116.71 18.2055 116.134 17.8069 115.496 17.5347C114.858 17.2624 114.172 17.1221 113.479 17.1221C112.786 17.1221 112.1 17.2624 111.463 17.5347C110.825 17.8069 110.249 18.2055 109.768 18.7066C109.288 19.2076 108.913 19.8007 108.667 20.4505C108.42 21.1002 108.307 21.7932 108.334 22.4878ZM52.164 23.4714V14.5702C52.1737 14.3441 52.2699 14.1305 52.4326 13.9738C52.5953 13.8171 52.812 13.7292 53.0375 13.7286H55.6181C55.8433 13.7295 56.0594 13.8176 56.2215 13.9743C56.3836 14.1311 56.4792 14.3445 56.4884 14.5702V23.5832C56.4884 26.4489 57.9113 27.9913 60.2367 27.9913C61.1869 28.0034 62.1199 27.736 62.9203 27.2221C63.7207 26.7083 64.3535 25.9705 64.7405 25.0999V14.5724C64.7405 13.8728 65.1171 13.7308 65.7288 13.7308H68.1111C68.3366 13.7315 68.5533 13.8193 68.716 13.976C68.8787 14.1328 68.9749 14.3464 68.9846 14.5724V30.4915C68.9749 30.7176 68.8787 30.9312 68.716 31.0879C68.5533 31.2447 68.3366 31.3325 68.1111 31.3331H66.8364C66.6398 31.3324 66.4498 31.2614 66.3006 31.133C66.1514 31.0046 66.0526 30.8272 66.0219 30.6324L65.555 29.3694C64.7637 30.1546 63.8236 30.7728 62.7902 31.1875C61.7567 31.6021 60.6509 31.8048 59.5381 31.7836C54.0771 31.7836 52.164 28.0539 52.164 23.4714ZM201.362 31.4986C201.288 31.4956 201.216 31.4779 201.15 31.4464C201.083 31.415 201.024 31.3705 200.975 31.3155C200.926 31.2605 200.889 31.1963 200.865 31.1265C200.842 31.0568 200.832 30.983 200.838 30.9095V0.588027H200.864C200.875 0.426264 200.947 0.274992 201.067 0.165547C201.186 0.0561028 201.343 -0.00312702 201.504 0.00012734H202.259C202.415 0.00322977 202.565 0.0654727 202.678 0.17444C202.791 0.283408 202.859 0.431089 202.868 0.588027V15.9192C204.667 14.1296 207.079 13.0956 209.611 13.0278C214.462 13.0278 217.109 15.9192 217.109 21.255V30.8838C217.1 31.0413 217.032 31.1895 216.918 31.2986C216.804 31.4076 216.654 31.4695 216.496 31.4717H215.653C215.496 31.4686 215.347 31.4063 215.234 31.2973C215.121 31.1884 215.054 31.0407 215.045 30.8838V21.2807C215.045 17.152 213.039 14.9904 209.496 14.9904C208.233 15.0425 206.994 15.3476 205.851 15.8878C204.708 16.4279 203.685 17.1922 202.841 18.1356V30.9084C202.851 30.9901 202.842 31.0729 202.815 31.1504C202.788 31.2279 202.743 31.298 202.684 31.3551C202.625 31.4122 202.553 31.4548 202.475 31.4795C202.397 31.5042 202.314 31.5104 202.233 31.4974L201.362 31.4986ZM183.222 31.4986C183.148 31.4955 183.077 31.4776 183.01 31.4461C182.944 31.4146 182.885 31.37 182.836 31.3151C182.787 31.2602 182.75 31.1959 182.726 31.1263C182.703 31.0566 182.694 30.9829 182.699 30.9095V0.588027C182.708 0.43062 182.776 0.282473 182.89 0.173397C183.003 0.0643209 183.154 0.0024118 183.311 0.00012734H184.154C184.311 0.00272764 184.461 0.0648368 184.574 0.173935C184.687 0.283033 184.754 0.431006 184.763 0.588027V30.9084C184.763 31.2739 184.59 31.4974 184.154 31.4974L183.222 31.4986ZM127.457 31.4986C127.384 31.4955 127.312 31.4776 127.246 31.4461C127.179 31.4146 127.12 31.37 127.071 31.3151C127.023 31.2602 126.985 31.1959 126.962 31.1263C126.938 31.0566 126.929 30.9829 126.934 30.9095V0.588027H126.96C126.971 0.426557 127.043 0.275457 127.162 0.166016C127.281 0.0565753 127.437 -0.00282107 127.598 0.00012734H128.353C128.51 0.00272764 128.66 0.0648368 128.772 0.173935C128.885 0.283033 128.953 0.431006 128.961 0.588027V15.9192C130.76 14.1299 133.172 13.0959 135.705 13.0278C140.558 13.0278 143.202 15.9192 143.202 21.255V30.8838C143.193 31.0408 143.125 31.1885 143.012 31.2974C142.899 31.4064 142.75 31.4686 142.593 31.4717H141.749C141.593 31.4691 141.443 31.407 141.33 31.2979C141.217 31.1888 141.149 31.0409 141.141 30.8838V21.2807C141.141 17.152 139.135 14.9904 135.589 14.9904C134.327 15.0422 133.087 15.3472 131.945 15.8874C130.802 16.4276 129.779 17.1921 128.936 18.1356V30.9084C128.946 30.9901 128.937 31.0729 128.909 31.1504C128.882 31.2279 128.837 31.298 128.778 31.3551C128.719 31.4122 128.647 31.4548 128.569 31.4795C128.491 31.5042 128.408 31.5104 128.327 31.4974L127.457 31.4986ZM98.276 31.3264C98.0495 31.33 97.8307 31.2435 97.6677 31.0858C97.5046 30.9281 97.4104 30.712 97.4057 30.4848V21.4719C97.4057 18.6911 96.0987 17.1196 93.6273 17.1196C92.7416 17.1412 91.8697 17.3441 91.0649 17.7158C90.2602 18.0875 89.5396 18.6202 88.9475 19.2812C89.0566 19.9776 89.1054 20.6821 89.0934 21.3869V30.4826C89.0837 30.7081 88.988 30.9212 88.826 31.0778C88.664 31.2345 88.4482 31.3227 88.2232 31.3242H85.8142C85.5872 31.3281 85.3679 31.2418 85.204 31.0842C85.0402 30.9265 84.9451 30.7103 84.9395 30.4826V21.4674C84.9395 18.662 83.6325 17.1163 81.0742 17.1163C80.1576 17.118 79.2577 17.3629 78.466 17.8261C77.6742 18.2894 77.0187 18.9545 76.566 19.754V30.4781C76.5563 30.7036 76.4605 30.9167 76.2985 31.0734C76.1366 31.23 75.9207 31.3182 75.6957 31.3197H73.133C72.9079 31.3188 72.6919 31.2307 72.53 31.0739C72.3681 30.9171 72.2728 30.7037 72.2639 30.4781V14.5702C72.2736 14.3447 72.3693 14.1316 72.5313 13.9749C72.6933 13.8183 72.9091 13.7301 73.1341 13.7286H74.4121C74.5811 13.7259 74.7467 13.7757 74.8864 13.8711C75.026 13.9666 75.1328 14.103 75.1921 14.2617L75.6846 15.7482C77.29 14.1656 79.4507 13.2786 81.7015 13.2782C82.8353 13.2194 83.9658 13.4452 84.9907 13.935C86.0156 14.4248 86.9026 15.1633 87.5714 16.0835C89.3662 14.3878 91.707 13.3926 94.17 13.2782C99.7211 13.2782 101.697 17.0671 101.697 21.6429V30.4848C101.692 30.712 101.598 30.9281 101.435 31.0858C101.272 31.2435 101.053 31.33 100.826 31.3264H98.276ZM226.08 30.4323C225.925 30.0524 225.809 29.6577 225.734 29.2543C225.588 28.5837 225.297 28.3009 224.687 28.2707H224.049V30.4323H223.38V25.5201H223.35C223.783 25.4505 224.22 25.4132 224.658 25.4083C225.193 25.3503 225.73 25.4893 226.169 25.7995C226.302 25.9192 226.408 26.0667 226.478 26.2316C226.548 26.3965 226.582 26.5748 226.576 26.754C226.573 27.0445 226.475 27.326 226.296 27.5545C226.118 27.783 225.868 27.9456 225.588 28.017V28.0461C225.793 28.1324 225.972 28.2703 226.109 28.4465C226.246 28.6227 226.335 28.8312 226.368 29.052C226.457 29.5227 226.593 29.9832 226.774 30.4267L226.08 30.4323ZM224.025 25.9415V27.7678H224.723C225.447 27.7678 225.914 27.4023 225.914 26.8144C225.914 26.1695 225.42 25.8856 224.688 25.8856C224.466 25.8817 224.244 25.9005 224.025 25.9415ZM43.9319 4.01371C43.928 3.67234 43.9924 3.33365 44.1212 3.01767C44.2501 2.70169 44.4409 2.41486 44.6822 2.17413C44.9235 1.93341 45.2106 1.74369 45.5263 1.61619C45.842 1.4887 46.18 1.42602 46.5203 1.43187C46.8658 1.4219 47.2097 1.48113 47.5321 1.60609C47.8545 1.73105 48.1488 1.91924 48.3978 2.15964C48.6468 2.40004 48.8455 2.68784 48.9823 3.00619C49.1191 3.32454 49.1912 3.66706 49.1945 4.01371C49.1773 4.70821 48.886 5.36747 48.3846 5.84672C47.8832 6.32597 47.2127 6.58605 46.5203 6.56985C46.1828 6.57324 45.848 6.50973 45.5351 6.38297C45.2221 6.25621 44.9372 6.06869 44.6967 5.83118C44.4562 5.59368 44.2648 5.31086 44.1336 4.99897C44.0023 4.68707 43.9338 4.35225 43.9319 4.01371Z" fill="white"></path>
    </mask>
    <g mask="url(#mask0_195_17973)">
      <path d="M233.118 -3.53271H-1.98828V47.8805H233.118V-3.53271Z" fill="url(#paint0_linear_195_17973)"></path>
    </g>
    <mask id="mask1_195_17973" style="mask-type:luminance" maskUnits="userSpaceOnUse" x="0" y="3" width="31" height="39">
      <path d="M21.2263 41.5946C20.1946 41.3226 19.1907 40.954 18.2278 40.4936C17.3149 40.0541 16.4463 39.5275 15.6339 38.9211C14.8359 38.3203 14.0904 37.6525 13.4054 36.9249C12.7096 36.1799 12.068 35.3858 11.4855 34.5487C10.9675 33.8115 10.5223 33.0254 10.1562 32.2016C9.7795 31.3682 9.50416 30.4923 9.33616 29.5929C9.1634 28.6886 9.13332 27.7627 9.24702 26.849C9.36725 25.9006 9.66717 24.9841 10.1306 24.1487C10.4281 23.6116 10.8036 23.1219 11.2449 22.6957C11.6834 22.2695 12.1805 21.9085 12.7212 21.6239C13.2625 21.3358 13.8464 21.137 14.4506 21.0348C15.0685 20.9299 15.7006 20.9431 16.3136 21.074C16.6459 21.1486 16.9705 21.2545 17.283 21.3903C17.5893 21.5246 17.8828 21.6866 18.1599 21.8742C18.7073 22.2421 19.1957 22.6913 19.6084 23.2065C20.0442 23.7633 20.3998 24.3789 20.6647 25.035C20.8229 25.4027 20.9622 25.7783 21.0981 26.1393C21.1839 26.374 21.2731 26.6042 21.3633 26.8345C21.5591 27.363 21.8145 27.8674 22.1244 28.3378C22.4226 28.7737 22.8178 29.1341 23.2787 29.3906C23.6089 29.5733 23.9652 29.7038 24.335 29.7773C24.7035 29.8564 25.0817 29.8798 25.4571 29.8466C25.8252 29.8161 26.1866 29.7298 26.529 29.5907C26.8658 29.4524 27.1761 29.2565 27.446 29.0117C27.7286 28.7509 27.9669 28.4454 28.1513 28.1075C28.3405 27.7558 28.4807 27.3797 28.5681 26.9898C28.6582 26.5791 28.7026 26.1597 28.7007 25.7392C28.6981 25.3132 28.6503 24.8887 28.558 24.4728C28.1807 22.7892 27.4661 21.2001 26.4577 19.802C25.4492 18.3914 24.1935 17.1765 22.7517 16.2165C21.3198 15.2496 19.7223 14.5558 18.0395 14.1701C16.3597 13.7801 14.6166 13.7519 12.9251 14.0874C11.9044 14.2921 10.9124 14.6212 9.97128 15.0676C9.02638 15.5142 8.13395 16.0649 7.31046 16.7094C6.48709 17.3567 5.73682 18.0924 5.07305 18.9034C3.7465 20.5245 2.80805 22.429 2.32977 24.4706C2.08688 25.4881 1.95132 26.5284 1.9253 27.5744C1.89847 28.6228 1.97724 29.6713 2.16041 30.7039C2.34382 31.7366 2.63205 32.7478 3.02061 33.7216C3.05789 33.8151 3.07634 33.915 3.07487 34.0156C3.0734 34.1163 3.05205 34.2156 3.01205 34.3079C2.97205 34.4002 2.9142 34.4836 2.84184 34.5534C2.76948 34.6231 2.68406 34.6777 2.59051 34.7141C2.40106 34.7907 2.18907 34.7887 2.00106 34.7087C1.81305 34.6287 1.66438 34.4771 1.58769 34.2872C1.15854 33.2168 0.841144 32.1048 0.640576 30.9688C0.441893 29.8364 0.357897 28.6868 0.389871 27.5375C0.419244 26.3861 0.568623 25.241 0.83557 24.1208C1.10561 22.9955 1.49794 21.9033 2.00553 20.8638C2.51812 19.8229 3.14606 18.8432 3.87746 17.9433C5.3504 16.1363 7.20694 14.6818 9.31164 13.6861C10.3664 13.1886 11.4771 12.8209 12.6198 12.5908C14.5209 12.2163 16.4794 12.2486 18.3671 12.6858C20.2349 13.1117 22.0079 13.881 23.5963 14.9547C25.1906 16.0178 26.5795 17.3622 27.6956 18.9224C28.825 20.4878 29.6246 22.2676 30.0455 24.1532C30.1609 24.6729 30.2207 25.2034 30.2238 25.7358C30.2285 26.2721 30.172 26.8073 30.0556 27.3307C29.9386 27.858 29.7512 28.3671 29.4985 28.8441C29.234 29.3319 28.8906 29.7723 28.4823 30.1473C28.0809 30.5125 27.6194 30.8052 27.1184 31.0124C26.6292 31.2155 26.1109 31.3396 25.583 31.3801C25.058 31.4234 24.5296 31.3903 24.0141 31.2817C23.4948 31.173 22.9944 30.9881 22.5288 30.733C21.8612 30.3654 21.2887 29.846 20.8575 29.2163C20.4796 28.6487 20.1674 28.0397 19.9271 27.4011C19.8312 27.1642 19.7421 26.9217 19.6519 26.6814C19.5237 26.336 19.3878 25.9772 19.2452 25.6386C19.0342 25.1125 18.7523 24.618 18.4072 24.1688C18.2479 23.9701 18.0744 23.7834 17.888 23.61C17.7048 23.4396 17.508 23.2845 17.2997 23.1461C17.0965 23.0113 16.8826 22.8935 16.6601 22.7941C16.0447 22.5204 15.3626 22.4349 14.699 22.5482C14.2577 22.6232 13.8311 22.7684 13.4355 22.9785C12.6138 23.4136 11.934 24.0762 11.4766 24.8875C11.1072 25.5563 10.8679 26.2895 10.7713 27.048C10.678 27.8065 10.7032 28.575 10.846 29.3258C10.9947 30.1059 11.2348 30.8656 11.5613 31.5891C11.8882 32.3216 12.2861 33.0202 12.7491 33.6747C13.2896 34.4515 13.8854 35.1881 14.5319 35.8787C15.1537 36.5447 15.8335 37.1536 16.5632 37.6983C17.2962 38.2458 18.0798 38.7219 18.9031 39.12C19.7772 39.5391 20.6891 39.874 21.6263 40.1203C21.7236 40.1456 21.815 40.1901 21.8951 40.251C21.9751 40.312 22.0424 40.3883 22.0928 40.4755C22.1433 40.5628 22.176 40.6592 22.1891 40.7592C22.2021 40.8591 22.1953 40.9608 22.1689 41.0581C22.1229 41.2211 22.0253 41.3647 21.8908 41.4673C21.7564 41.5698 21.5924 41.6259 21.4235 41.627C21.3567 41.6246 21.2904 41.6137 21.2263 41.5946ZM9.95568 39.4464C7.08061 36.8123 5.1991 33.2643 4.62847 29.4007C4.59991 29.2001 4.65118 28.9964 4.77118 28.8334C4.89118 28.6705 5.07028 28.5614 5.26978 28.5299C5.46927 28.4983 5.67314 28.5467 5.83732 28.6647C6.0015 28.7827 6.11281 28.9607 6.14718 29.1604C6.67294 32.6961 8.39774 35.942 11.0309 38.3511C11.1402 38.4573 11.2152 38.594 11.2463 38.7434C11.2775 38.8928 11.2633 39.0482 11.2057 39.1895C11.148 39.3308 11.0495 39.4515 10.9228 39.5361C10.7962 39.6207 10.6472 39.6654 10.495 39.6643C10.2939 39.6641 10.1007 39.586 9.95568 39.4464ZM24.4097 36.6522C22.9462 36.5731 21.5125 36.2063 20.19 35.5725C18.8591 34.9389 17.675 34.0332 16.7136 32.9135C16.2213 32.3464 15.7865 31.7317 15.4155 31.0783C15.0444 30.4232 14.7455 29.7295 14.5241 29.0095C14.3022 28.29 14.1744 27.5446 14.1441 26.792C14.1397 26.5891 14.2152 26.3926 14.3541 26.245C14.4931 26.0974 14.6844 26.0106 14.8866 26.0034C15.0888 25.9962 15.2858 26.0692 15.4348 26.2065C15.5838 26.3438 15.6729 26.5345 15.6829 26.7372C15.7101 27.3577 15.816 27.9722 15.9982 28.5658C16.1865 29.1799 16.4417 29.7714 16.7593 30.3295C17.0799 30.8949 17.4553 31.4273 17.8802 31.9188C18.2963 32.3987 18.76 32.835 19.2641 33.2209C19.7623 33.6001 20.2976 33.9274 20.8619 34.1978C21.4288 34.4705 22.0216 34.6854 22.6314 34.8393C23.2416 34.9953 23.8656 35.0914 24.4944 35.1265C25.1212 35.1594 25.7497 35.1298 26.3708 35.0382C26.4705 35.0215 26.5725 35.0249 26.6709 35.048C26.7693 35.0712 26.8621 35.1137 26.944 35.1732C27.0258 35.2326 27.0951 35.3078 27.1478 35.3943C27.2005 35.4808 27.2356 35.5769 27.2509 35.6772C27.2663 35.7774 27.2616 35.8796 27.2372 35.978C27.2129 36.0764 27.1692 36.169 27.1089 36.2503C27.0486 36.3317 26.9728 36.4002 26.8859 36.4519C26.7989 36.5036 26.7026 36.5375 26.6025 36.5516C26.0696 36.6286 25.532 36.6678 24.9936 36.6689C24.7963 36.6667 24.6047 36.66 24.4097 36.6499V36.6522ZM24.3094 26.5573C24.2107 25.8383 24.0344 25.1323 23.7835 24.4516C23.5334 23.7724 23.2118 23.122 22.8241 22.5113C22.436 21.9043 21.9823 21.3421 21.4714 20.8348C20.9578 20.3255 20.3855 19.8794 19.7666 19.5059C19.2249 19.1787 18.6496 18.9112 18.0507 18.7078C17.4495 18.5033 16.8284 18.3635 16.1977 18.2909C15.5689 18.2154 14.9337 18.2086 14.3035 18.2708C13.6785 18.3327 13.0626 18.4651 12.4672 18.6654C11.5652 18.978 10.7243 19.4458 9.98242 20.0479C9.22962 20.6561 8.57426 21.3764 8.03918 22.1838C7.49408 23.0043 7.06475 23.8965 6.76336 24.835C6.70031 25.0291 6.56316 25.1904 6.38191 25.2834C6.20066 25.3764 5.99006 25.3936 5.7962 25.3312C5.7004 25.3013 5.61145 25.2527 5.53445 25.1882C5.45745 25.1237 5.39393 25.0445 5.34753 24.9553C5.30114 24.8661 5.27279 24.7685 5.26412 24.6683C5.25545 24.568 5.26663 24.467 5.29701 24.3711C5.64108 23.297 6.13234 22.2761 6.75668 21.3377C7.37736 20.3998 8.1371 19.5623 9.00968 18.8543C10.4772 17.6567 12.2653 16.9217 14.1486 16.7418C14.8901 16.6689 15.6373 16.6768 16.3771 16.7653C17.8597 16.9381 19.2888 17.4246 20.57 18.1926C21.2929 18.6292 21.9614 19.1508 22.5612 19.7462C23.1532 20.3336 23.6766 20.9868 24.1211 21.6932C25.0182 23.1031 25.6016 24.6905 25.8315 26.3472C25.8575 26.5488 25.8029 26.7525 25.6798 26.9139C25.5566 27.0753 25.3748 27.1814 25.1741 27.2089C25.1406 27.2089 25.1039 27.2145 25.0704 27.2145C24.8857 27.215 24.7069 27.1486 24.5671 27.0274C24.4272 26.9063 24.3357 26.7385 24.3094 26.5551V26.5573ZM0.300731 16.5306C0.220821 16.4699 0.15369 16.3939 0.103218 16.3071C0.0527455 16.2202 0.0199311 16.1242 0.00667002 16.0245C-0.00659103 15.9248 -3.59467e-05 15.8235 0.0259567 15.7264C0.0519493 15.6293 0.0968643 15.5383 0.158108 15.4587C0.561795 14.9379 0.992488 14.4388 1.44841 13.9633C1.8941 13.4928 2.38103 13.039 2.88021 12.6098C3.37983 12.1848 3.90047 11.7852 4.44016 11.4127C4.97611 11.045 5.54215 10.6952 6.11821 10.38C6.69428 10.0648 7.28929 9.77535 7.89098 9.5194C8.49638 9.26088 9.1149 9.03443 9.74397 8.84097C10.3727 8.64626 11.0109 8.48362 11.656 8.35366C13.0862 8.06918 14.5446 7.95327 16.0016 8.0083C16.7953 8.03782 17.5864 8.11658 18.3705 8.24413C19.1522 8.37279 19.9257 8.54745 20.687 8.7672C20.7835 8.79474 20.8737 8.84114 20.9523 8.90373C21.031 8.96633 21.0965 9.04388 21.1452 9.13195C21.1938 9.22002 21.2247 9.31686 21.2359 9.41692C21.2472 9.51697 21.2386 9.61827 21.2107 9.71499C21.1519 9.91004 21.0187 10.0739 20.8401 10.171C20.6615 10.2681 20.4519 10.2906 20.2569 10.2336C19.5557 10.0306 18.8432 9.86938 18.1231 9.75076C16.68 9.51399 15.2128 9.46104 13.7564 9.59317C13.1532 9.64849 12.5533 9.73504 11.9591 9.85247C11.3708 9.97094 10.778 10.1218 10.1997 10.2995C9.62016 10.4787 9.05005 10.6872 8.49156 10.9243C7.93444 11.1613 7.38623 11.4284 6.85696 11.7168C6.3251 12.0087 5.80819 12.3273 5.30816 12.6713C4.31075 13.3558 3.38691 14.1424 2.55151 15.0184C2.13455 15.4543 1.74139 15.9124 1.37375 16.3909C1.30225 16.4845 1.21012 16.5603 1.10458 16.6122C0.999037 16.6642 0.882941 16.691 0.765372 16.6904C0.597373 16.6887 0.434409 16.6327 0.300731 16.5306ZM29.2277 16.1852C28.7727 15.6167 28.2818 15.078 27.758 14.5724C27.2344 14.066 26.6799 13.5927 26.0978 13.1552C25.5142 12.7162 24.9051 12.3123 24.2738 11.9459C24.1865 11.896 24.1099 11.8294 24.0484 11.7497C23.987 11.67 23.9418 11.5789 23.9156 11.4817C23.8894 11.3844 23.8827 11.283 23.8958 11.1831C23.9088 11.0832 23.9415 10.9869 23.9918 10.8997C24.0963 10.7249 24.2647 10.5978 24.4612 10.5457C24.6576 10.4935 24.8666 10.5203 25.0437 10.6203C25.7299 11.0141 26.3911 11.4501 27.0237 11.9258C27.6566 12.4028 28.2598 12.9183 28.8299 13.4693C29.4015 14.0214 29.9364 14.6106 30.4311 15.233C30.4939 15.3112 30.5406 15.4013 30.5683 15.4979C30.5961 15.5945 30.6043 15.6956 30.5926 15.7954C30.5809 15.8953 30.5494 15.9917 30.5001 16.0792C30.4507 16.1667 30.3844 16.2434 30.3052 16.3048C30.1718 16.4167 30.0032 16.4773 29.8294 16.4758C29.7138 16.4763 29.5996 16.4505 29.4954 16.4003C29.3912 16.3502 29.2997 16.277 29.2277 16.1864V16.1852ZM26.7763 8.27095C25.1056 7.29044 23.3148 6.53189 21.4491 6.01436C19.5665 5.48763 17.6257 5.1989 15.6718 5.15486C13.7263 5.10523 11.7827 5.31229 9.89105 5.77071C8.01375 6.22131 6.21355 6.94903 4.54935 7.93006C4.37335 8.03258 4.16436 8.06203 3.96701 8.01212C3.76965 7.96221 3.59956 7.8369 3.49305 7.66294C3.44116 7.57656 3.40693 7.48069 3.39236 7.38091C3.37778 7.28113 3.38314 7.17944 3.40813 7.08176C3.43313 6.98408 3.47725 6.89237 3.53793 6.81196C3.59861 6.73156 3.67464 6.66407 3.76158 6.61344C5.55846 5.5578 7.50122 4.77477 9.52669 4.28978C11.5499 3.79604 13.6293 3.57318 15.7108 3.627C17.7936 3.67514 19.8623 3.98339 21.8692 4.54461C23.8632 5.0975 25.7772 5.90789 27.563 6.95544C27.6496 7.00598 27.7253 7.07326 27.7858 7.15338C27.8463 7.23351 27.8903 7.32489 27.9153 7.42221C27.9403 7.51954 27.9457 7.62087 27.9313 7.72033C27.917 7.81979 27.883 7.91539 27.8315 8.00159C27.7799 8.08892 27.7116 8.16518 27.6305 8.226C27.5494 8.28681 27.4572 8.33099 27.3591 8.35601C27.261 8.38103 27.1589 8.3864 27.0587 8.3718C26.9585 8.35721 26.8633 8.32294 26.7763 8.27095Z" fill="white"></path>
    </mask>
    <g mask="url(#mask1_195_17973)">
      <path d="M233.118 -3.53271H-1.98828V47.8805H233.118V-3.53271Z" fill="url(#paint1_linear_195_17973)"></path>
    </g>
  </g>
  <defs>
    <linearGradient id="paint0_linear_195_17973" x1="-1.98828" y1="22.1739" x2="233.118" y2="22.1739" gradientUnits="userSpaceOnUse">
      <stop stop-color="#5EC0D9"></stop>
      <stop offset="0.213" stop-color="#5AABDA"></stop>
      <stop offset="0.418" stop-color="#6D91CA"></stop>
      <stop offset="0.623" stop-color="#8575B4"></stop>
      <stop offset="0.828" stop-color="#995895"></stop>
      <stop offset="1" stop-color="#9E3B68"></stop>
    </linearGradient>
    <linearGradient id="paint1_linear_195_17973" x1="-1.98828" y1="22.1739" x2="233.118" y2="22.1739" gradientUnits="userSpaceOnUse">
      <stop stop-color="#5EC0D9"></stop>
      <stop offset="0.213" stop-color="#5AABDA"></stop>
      <stop offset="0.418" stop-color="#6D91CA"></stop>
      <stop offset="0.623" stop-color="#8575B4"></stop>
      <stop offset="0.828" stop-color="#995895"></stop>
      <stop offset="1" stop-color="#9E3B68"></stop>
    </linearGradient>
    <clipPath id="clip0_195_17973">
      <rect width="229" height="45" fill="white"></rect>
    </clipPath>
  </defs>
</svg>
