<svg width="275" height="30" viewBox="0 0 275 30" fill="none" xmlns="http://www.w3.org/2000/svg">
<path d="M26.8431 29.5718H12.1646L4.1047 29.6122C2.11979 29.5718 0.466797 29.5718 0.466797 29.5718V29.2455C1.17122 29.2367 1.86451 29.0706 2.49457 28.7596C3.12463 28.4485 3.67513 28.0006 4.1047 27.4495V4.02425L0.755037 3.04537V2.80001C4.26674 2.40548 7.74763 1.77842 11.1741 0.923142C11.5457 0.677752 12.1659 1.20899 12.1659 1.20899V29.1632H17.0838C20.3501 28.8774 21.2189 27.6531 21.2189 27.6531C23.5754 25.361 23.1615 22.8788 22.7066 19.3287H22.9128C24.0605 22.6837 25.4422 25.9562 27.048 29.1228C27.216 29.2859 26.8431 29.5718 26.8431 29.5718Z" fill="black"/>
<path d="M56.1166 19.5737C56.1166 25.5318 49.584 29.5713 42.0173 29.5713C34.4096 29.5713 27.918 25.5264 27.918 19.5737C27.918 13.5751 34.4096 9.57471 42.0173 9.57471C49.584 9.57471 56.1166 13.5738 56.1166 19.5737ZM42.7618 9.98325C39.0816 9.61517 36.3535 13.207 35.8986 18.9198C35.4888 24.6743 37.6349 28.7542 41.2741 29.1223C44.9543 29.4904 47.6824 25.8985 48.0964 20.1858C48.5499 14.4717 46.3996 10.3904 42.7618 9.98325Z" fill="black"/>
<path d="M78.8593 16.9189C76.9563 20.5513 75.0547 24.2644 73.1531 27.8549L74.5192 29.1197L74.1463 29.4877C72.1614 28.8756 61.204 28.9983 61.204 28.9983V28.6302C61.7507 28.7144 62.3092 28.5875 62.7636 28.2759C63.2179 27.9643 63.5332 27.492 63.6439 26.957C61.2464 22.304 58.7656 17.5715 56.3668 12.9185L53.804 12.7149L53.7207 12.4291C56.6942 11.8252 59.5448 10.7356 62.1549 9.20533C62.2723 9.11748 62.4176 9.07396 62.5647 9.08263C62.833 9.10055 63.0974 9.15547 63.3502 9.24577L72.074 26.9165L72.7352 27.5287L76.9946 19.4483C77.6557 17.291 71.4538 11.4084 71.5781 11.2049C72.5344 9.69476 78.8183 9.36847 78.8183 9.36847L79.1898 9.40892C79.6448 10.0224 80.9671 10.4309 78.8593 16.9189Z" fill="black"/>
<path d="M106.394 22.4297C106.353 26.7551 101.928 29.5757 95.8917 29.5757C86.4235 29.5757 80.4688 25.7398 80.4688 19.5781C80.4688 13.3341 86.0915 9.5791 95.359 9.5791C97.9231 9.5791 104.993 11.4559 105.034 13.9044C104.284 14.5639 103.345 14.9775 102.347 15.0882C102.12 15.0913 101.895 15.0454 101.688 14.9539C101.48 14.8624 101.296 14.7274 101.147 14.5584H96.2292C102.012 15.2919 106.432 18.308 106.394 22.4297ZM88.4084 20.3898C88.4084 25.0427 91.3441 29.1631 96.3467 29.1631C101.674 29.1631 105.939 26.3061 105.939 22.4297C105.939 18.2675 100.564 14.553 93.3714 14.553H89.4848C88.7735 16.4189 88.4089 18.3961 88.4084 20.3898ZM89.6488 14.1458H100.851C99.8944 12.6357 99.404 9.90136 95.4342 9.90136C94.1455 9.93899 92.8996 10.3662 91.865 11.1253C90.8303 11.8844 90.0567 12.9388 89.6488 14.1458Z" fill="black"/>
<path d="M126.73 29.5701H108.697V29.2438C109.399 29.2207 110.087 29.0482 110.715 28.7382C111.343 28.4283 111.896 27.9881 112.335 27.4478V4.02391L108.996 3.04638V2.80098C111.225 2.51622 113.391 1.86833 115.405 0.883709L123.716 0.843262C129.214 0.843262 138.311 1.29224 138.311 6.3524C138.311 9.90247 133.142 11.7456 130.952 12.9227C139.097 13.249 143.52 16.1464 143.52 19.9823C143.521 25.6115 138.478 29.5701 126.73 29.5701ZM122.724 1.29361H120.368V19.2907C123.055 12.924 130.25 16.1073 130.25 7.41485C130.248 3.82029 127.025 1.29361 122.724 1.29361ZM126.735 29.1656C127.916 29.1542 129.083 28.9107 130.168 28.4494C131.253 27.9881 132.234 27.3181 133.054 26.4786C133.874 25.639 134.516 24.6468 134.943 23.5597C135.371 22.4726 135.574 21.3124 135.542 20.1468C135.542 17.3721 134.343 14.8008 130.214 13.2907C125.542 15.6165 120.829 15.9024 120.415 21.4938L120.456 29.1656H126.735Z" fill="black"/>
<path d="M168.041 13.614C168.294 13.6132 168.546 13.5717 168.786 13.4913L169.034 13.7367C168.249 14.8788 166.302 17.3691 164.155 17.3273C160.764 17.2868 160.929 13.1651 157.953 13.1651C156.961 13.1651 155.678 14.3893 154.811 17.6954V26.551L155.637 29.408L155.182 29.5711C155.182 29.5711 150.594 29.1221 144.349 29.1221V28.7554C144.639 28.8013 144.936 28.7869 145.22 28.7133C145.503 28.6397 145.769 28.5083 145.998 28.3278C146.228 28.1472 146.417 27.9214 146.553 27.6646C146.689 27.4079 146.77 27.126 146.789 26.8368V12.7984L143.398 11.7777V11.5323C146.92 11.1122 150.414 10.4855 153.86 9.65548C154.19 9.41009 154.816 9.94129 154.816 9.94129V16.0221C155.808 13.4927 157.002 9.49365 161.555 9.49365C165.064 9.4923 165.767 13.614 168.041 13.614Z" fill="black"/>
<path d="M195.284 26.346C193.887 27.2149 192.621 28.2728 191.522 29.4888L191.026 29.5711L183.335 28.0609V25.6125C182.343 27.9383 180.564 29.5711 176.388 29.5711C171.061 29.5711 166.92 27.1226 166.92 23.164C166.92 18.1847 172.13 15.4099 176.926 15.4099C178.973 15.5128 180.963 16.115 182.716 17.1627C181.392 15.5299 178.126 14.0198 173.784 13.9794C172.173 13.7758 169.153 11.4904 169.153 11.4904V11.2046C169.774 10.6733 169.939 9.57178 178.456 9.57178C188.916 9.57178 191.315 15.449 191.315 15.449V26.0601C191.315 27.004 191.274 28.4264 191.725 28.4264C192.288 28.1805 192.816 27.8632 193.296 27.4826C193.862 27.0243 194.401 26.5336 194.908 26.0129L195.284 26.346ZM183.335 15.4504C183.335 15.0823 183.251 9.98168 178.456 9.98168C178.25 9.98168 174.611 12.2266 174.446 13.409C178.787 13.9403 182.178 15.4908 183.336 17.4539L183.335 15.4504ZM183.335 18.7968C182.894 18.0801 182.284 17.4794 181.556 17.046C180.829 16.6126 180.007 16.3593 179.159 16.3079C176.553 16.3079 174.776 19.8579 174.776 22.8781C174.776 25.8565 175.976 28.8362 178.828 28.8362C181.35 28.8362 182.926 25.8984 183.336 24.1429L183.335 18.7968Z" fill="black"/>
<path d="M221.252 29.4071L220.797 29.6107C220.797 29.6107 215.091 29.1213 208.848 29.1213V28.7545C208.848 28.7545 212.32 29.2036 212.4 26.8359V16.3071C212.4 16.3071 212.563 11.2469 209.423 11.2469C206.652 11.2469 205.247 14.8375 204.874 18.1839V26.5905L205.702 29.4071L205.247 29.6107C205.247 29.6107 200.698 29.1213 194.414 29.1213V28.7545C194.706 28.8047 195.006 28.7936 195.295 28.7221C195.583 28.6506 195.852 28.5203 196.086 28.3394C196.32 28.1586 196.513 27.9314 196.652 27.6724C196.791 27.4134 196.874 27.1284 196.895 26.8359V12.7975L193.463 11.8186V11.5328C196.881 11.1456 200.266 10.5184 203.594 9.65594C203.718 9.59982 203.855 9.57418 203.991 9.58122C204.128 9.58826 204.261 9.62777 204.379 9.69639L204.42 9.65594C204.581 9.737 204.733 9.83271 204.875 9.94179V15.6545C205.579 12.757 207.439 9.61414 212.442 9.61414C216.741 9.61414 220.421 11.7714 220.421 16.3071V26.5905L221.252 29.4071Z" fill="black"/>
<path d="M251.105 27.0003C251.147 28.2246 252.51 28.8367 253.544 28.7531V29.0794C251.808 29.0794 243.042 29.2021 242.711 29.5688L242.302 29.4057C242.385 29.1603 243.13 26.5891 243.13 26.5082V23.7738C242.427 25.4887 241.221 26.9571 239.666 27.9902C238.112 29.0234 236.28 29.574 234.406 29.5715C228.616 29.5715 222.869 25.5725 222.869 19.5739C222.869 14.1457 226.674 9.45357 234.406 9.57492C239.284 9.65582 242.717 11.7322 243.047 13.8598C242.638 14.3088 241.352 15.2472 240.567 15.0018C238.582 14.5973 239.12 10.0644 235.77 9.98211C231.262 9.81896 230.932 16.4715 230.809 20.3478C230.725 24.1028 231.139 29.0403 235.15 29.0821C238.21 29.163 241.889 26.3073 243.13 22.5927V4.22893L239.119 3.04513V2.75929C242.857 2.42543 246.563 1.79783 250.2 0.88246C250.371 0.856604 250.546 0.877042 250.706 0.941629C250.867 1.00621 251.006 1.11253 251.11 1.2492L251.105 27.0003Z" fill="black"/>
<path d="M274.963 24.1838C274.756 27.9793 269.05 29.4421 265.784 29.4421C261.194 29.4421 256.067 27.5235 254.537 25.5239L254.62 25.1977C254.62 25.1977 257.473 23.1982 259.086 23.2791C259.086 23.2791 262.848 28.5374 263.138 28.625C264.683 28.9688 266.275 29.0654 267.851 28.9109C270.662 28.4619 271.117 27.5235 271.282 26.5028C272.109 22.2179 254.868 23.0755 254.868 15.1583C254.868 12.0154 258.63 9.44552 264.956 9.44552C267.853 9.43101 270.703 10.1625 273.225 11.5678V11.894C273.225 11.894 270.455 14.4234 268.843 14.6688C268.843 14.6688 264.791 9.85271 264.501 9.85271C261.441 9.93496 258.627 10.4648 258.627 12.8324C258.631 16.7169 275.336 15.9403 274.963 24.1838Z" fill="black"/>
</svg>
