<?xml version="1.0" encoding="UTF-8"?>
<svg xmlns="http://www.w3.org/2000/svg" width="233" height="53" viewBox="0 0 233 53" fill="none">
  <path d="M214.017 23.2956C214.036 22.611 214.149 21.9454 214.375 21.2989C215.751 18.123 219.408 16.6778 222.556 18.047C223.988 18.6745 225.138 19.8346 225.779 21.2989C226.043 22.0976 226.156 22.9533 226.137 23.7901C226.156 23.9612 226.043 24.1324 225.873 24.1514C225.835 24.1514 225.817 24.1514 225.779 24.1514H214.017C214.017 24.1514 214.017 23.6379 214.017 23.2766M214.036 30.2748C213.998 29.9515 213.998 29.6282 213.998 29.2859H232.282C232.602 29.324 232.904 29.0958 232.942 28.7725C232.942 28.7344 232.942 28.7154 232.942 28.6774C233.111 25.7108 232.791 22.7251 231.98 19.8536C229.304 13.2167 221.82 10.0218 215.223 12.7032C212 14.0154 209.436 16.6017 208.136 19.8536C207.438 22.1926 207.118 24.6458 207.174 27.099C207.137 29.5332 207.476 31.9673 208.192 34.2874C209.813 39.4029 214.168 42.4456 220.312 42.4456C224.836 42.6358 229.21 40.8102 232.263 37.4632C232.489 37.254 232.489 36.9117 232.301 36.6835C232.282 36.6455 232.244 36.6264 232.207 36.6074L228.644 33.4506C228.342 33.2034 228.041 33.2605 227.739 33.5647C225.986 35.4664 223.498 36.4933 220.916 36.3602C217.994 36.5694 215.299 34.7438 214.394 31.9103C214.205 31.3968 214.073 30.8453 214.017 30.2938C214.017 30.2938 214.017 30.2938 214.017 30.2748" fill="white"></path>
  <path d="M117.526 23.2956C117.545 22.611 117.658 21.9454 117.885 21.2989C119.261 18.123 122.917 16.6778 126.065 18.047C127.498 18.6745 128.648 19.8346 129.289 21.2989C129.553 22.0976 129.666 22.9533 129.647 23.7901C129.666 23.9612 129.553 24.1324 129.383 24.1514C129.345 24.1514 129.326 24.1514 129.289 24.1514H117.526C117.526 24.1514 117.526 23.6379 117.526 23.2766M117.545 30.2748C117.508 29.9515 117.508 29.6282 117.508 29.2859H135.792C136.112 29.324 136.414 29.0958 136.452 28.7725C136.452 28.7344 136.452 28.7154 136.452 28.6774C136.621 25.7108 136.301 22.7251 135.49 19.8536C132.814 13.2167 125.33 10.0218 118.733 12.7032C115.51 14.0154 112.946 16.6017 111.645 19.8536C110.948 22.1926 110.628 24.6458 110.684 27.099C110.646 29.5332 110.986 31.9673 111.702 34.2874C113.323 39.4029 117.677 42.4456 123.822 42.4456C128.346 42.6358 132.719 40.8102 135.773 37.4632C135.999 37.254 135.999 36.9117 135.811 36.6835C135.792 36.6455 135.754 36.6264 135.716 36.6074L132.154 33.4506C131.89 33.2224 131.513 33.2605 131.287 33.5267C131.287 33.5267 131.268 33.5647 131.249 33.5837C129.496 35.4854 127.008 36.5123 124.425 36.3792C121.504 36.5884 118.808 34.7628 117.903 31.9293C117.715 31.4158 117.583 30.8643 117.526 30.3128C117.526 30.3128 117.526 30.3128 117.526 30.2938" fill="white"></path>
  <path d="M165.272 41.3996C164.952 41.4186 164.688 41.1904 164.669 40.8671C164.669 40.8481 164.669 40.8101 164.669 40.7911V12.6651C164.65 12.3418 164.876 12.0756 165.197 12.0566C165.216 12.0566 165.253 12.0566 165.272 12.0566H170.814C171.134 12.0376 171.398 12.2658 171.417 12.589C171.417 12.6081 171.417 12.6461 171.417 12.6651V40.7911C171.436 41.1143 171.21 41.3806 170.889 41.3996C170.871 41.3996 170.833 41.3996 170.814 41.3996H165.272ZM165.272 6.52267C164.952 6.54169 164.688 6.31348 164.669 5.9902C164.669 5.97118 164.669 5.93315 164.669 5.91413V0.608425C164.65 0.285138 164.876 0.0189021 165.197 -0.000114763C165.216 -0.000114763 165.253 -0.000114763 165.272 -0.000114763H170.814C171.134 -0.0191316 171.398 0.209071 171.417 0.532357C171.417 0.551374 171.417 0.589408 171.417 0.608425V5.89511C171.436 6.2184 171.21 6.48464 170.889 6.50365C170.871 6.50365 170.833 6.50365 170.814 6.50365H165.272V6.52267Z" fill="white"></path>
  <path d="M38.7919 31.606C38.7919 34.953 36.4922 36.5884 32.3265 36.5884C29.0655 36.5884 27.3125 35.3713 27.3125 32.9372C27.3125 30.1987 29.2351 28.9817 33.5894 28.9817H38.773V31.606H38.7919ZM33.0616 11.4481C29.4048 11.2579 25.7857 12.2468 22.7509 14.3006C22.5058 14.4908 22.4493 14.8331 22.6378 15.0994L24.862 19.1119C25.0128 19.3781 25.3333 19.4732 25.5972 19.3211C25.6349 19.3021 25.6726 19.264 25.7103 19.245C27.6141 17.8188 29.9703 17.0961 32.3453 17.2292C37.2274 17.2292 38.8107 18.7506 38.8107 22.0976V23.8661H32.5338C25.3521 23.8661 20.8848 26.7947 20.8848 33.1844C20.8848 39.5741 25.3521 42.1413 30.6677 42.1413C34.7769 42.1413 37.4913 40.7341 38.8673 38.7373H38.9238V40.8862C38.905 41.2095 39.1312 41.4757 39.4516 41.4948C39.4705 41.4948 39.5082 41.4948 39.527 41.4948H44.5976C44.918 41.5138 45.1819 41.2856 45.2008 40.9623C45.2008 40.9433 45.2008 40.9052 45.2008 40.8862V21.7172C45.2008 14.5288 41.9398 11.4861 33.0805 11.4861" fill="white"></path>
  <path d="M69.7994 41.3617C69.4789 41.3807 69.215 41.1525 69.1962 40.8292C69.1962 40.8102 69.1962 40.7722 69.1962 40.7532V23.8281C69.1962 20.0628 67.3301 17.4385 63.711 17.4385C60.0918 17.4385 58.1692 20.0628 58.1692 23.8281V40.7532C58.188 41.0764 57.9618 41.3427 57.6414 41.3617C57.6225 41.3617 57.5848 41.3617 57.566 41.3617H52.0242C51.7038 41.3807 51.4399 41.1525 51.421 40.8292C51.421 40.8102 51.421 40.7722 51.421 40.7532V12.6272C51.4022 12.3039 51.6284 12.0377 51.9488 12.0187C51.9677 12.0187 52.0054 12.0187 52.0242 12.0187H57.5848C57.9053 11.9997 58.1692 12.2279 58.188 12.5511C58.188 12.5702 58.188 12.6082 58.188 12.6272V14.7571H58.2446C60.0918 12.418 62.957 11.1439 65.8975 11.3531C72.1179 11.3531 75.9632 15.9742 75.9632 22.2497V40.7532C75.9821 41.0764 75.7559 41.3427 75.4354 41.3617C75.4166 41.3617 75.3789 41.3617 75.36 41.3617H69.7994Z" fill="white"></path>
  <path d="M98.2997 30.7693C98.8087 29.2099 99.0349 27.5934 98.9595 25.958C99.016 24.3225 98.7898 22.7061 98.2997 21.1467C97.3195 18.2752 94.2094 16.7538 91.3631 17.7427C89.7797 18.2942 88.5356 19.5493 87.989 21.1467C87.4989 22.7061 87.2727 24.3225 87.3293 25.958C87.2727 27.5934 87.48 29.2099 87.989 30.7693C88.9126 33.6408 91.9851 35.2192 94.8314 34.2684C96.4713 33.7169 97.7719 32.4237 98.2997 30.7693ZM81.5801 48.6071C81.3539 48.3979 81.3539 48.0556 81.5424 47.8274C81.5613 47.7894 81.599 47.7703 81.6367 47.7513L85.1992 44.1571C85.3877 43.9099 85.7459 43.8529 85.9909 44.043C86.0286 44.0811 86.0663 44.1191 86.104 44.1571C87.7628 45.8877 90.0436 46.8765 92.4375 46.8956C96.9049 46.8956 98.9595 44.4614 98.9595 39.8974V37.1589H98.9029C97.1499 39.5551 94.3036 40.8482 91.3631 40.5629C86.8203 40.8292 82.7111 37.8626 81.467 33.4506C80.7319 31.0355 80.3926 28.4872 80.5057 25.958C80.4114 23.4478 80.7319 20.9375 81.467 18.5224C82.6734 14.0725 86.8015 11.0868 91.3631 11.334C94.3036 11.0488 97.1876 12.38 98.9029 14.7951H98.9595V12.6082C98.9406 12.2849 99.1668 12.0186 99.4872 11.9996C99.5061 11.9996 99.5438 11.9996 99.5626 11.9996H105.104C105.425 11.9806 105.689 12.2088 105.708 12.5321C105.708 12.5511 105.708 12.5891 105.708 12.6082V39.517C105.708 47.9225 101.071 52.9619 92.1359 52.9619C88.1775 53.038 84.351 51.4596 81.5801 48.5881" fill="white"></path>
  <path d="M142.03 41.3617C141.71 41.3807 141.446 41.1525 141.427 40.8293C141.427 40.8102 141.427 40.7722 141.427 40.7532V12.6272C141.408 12.304 141.634 12.0377 141.955 12.0187C141.974 12.0187 142.011 12.0187 142.03 12.0187H147.572C147.892 11.9997 148.156 12.2279 148.175 12.5512C148.175 12.5702 148.175 12.6082 148.175 12.6272V15.1185H148.232C149.89 12.5702 152.774 11.1249 155.771 11.3531C158.033 11.3531 160.22 12.2089 161.86 13.7873C162.161 14.0915 162.218 14.3388 161.973 14.643L158.769 18.7317C158.618 18.9979 158.278 19.074 158.015 18.9218C157.977 18.9028 157.939 18.8838 157.92 18.8458C156.657 17.971 155.168 17.4765 153.641 17.4385C149.834 17.4385 148.156 20.1769 148.156 24.8741V40.7532C148.175 41.0765 147.949 41.3427 147.628 41.3617C147.61 41.3617 147.572 41.3617 147.553 41.3617H142.011H142.03Z" fill="white"></path>
  <path d="M196.374 41.3617C196.053 41.3807 195.789 41.1525 195.77 40.8292C195.77 40.8102 195.77 40.7722 195.77 40.7532V23.8281C195.77 20.0628 193.904 17.4385 190.285 17.4385C186.666 17.4385 184.743 20.0628 184.743 23.8281V40.7532C184.762 41.0764 184.536 41.3427 184.216 41.3617C184.197 41.3617 184.159 41.3617 184.14 41.3617H178.598C178.278 41.3807 178.014 41.1525 177.995 40.8292C177.995 40.8102 177.995 40.7722 177.995 40.7532V12.6272C177.976 12.3039 178.203 12.0377 178.523 12.0187C178.542 12.0187 178.58 12.0187 178.598 12.0187H184.14C184.461 11.9997 184.725 12.2279 184.743 12.5511C184.743 12.5702 184.743 12.6082 184.743 12.6272V14.7571H184.8C186.647 12.418 189.512 11.1439 192.453 11.3531C198.673 11.3531 202.519 15.9742 202.519 22.2497V40.7532C202.537 41.0764 202.311 41.3427 201.991 41.3617C201.972 41.3617 201.934 41.3617 201.915 41.3617H196.374Z" fill="white"></path>
  <path d="M15.5124 35.6565H14.0044C12.1383 35.6565 11.2901 34.9909 11.2901 32.9181V17.3243H15.5124C15.8328 17.3433 16.0967 17.1151 16.1156 16.7918C16.1156 16.7728 16.1156 16.7348 16.1156 16.7157V12.6461C16.1344 12.3228 15.9082 12.0566 15.5878 12.0376C15.5689 12.0376 15.5312 12.0376 15.5124 12.0376H11.2901V4.64003C11.2901 4.64003 11.2901 4.54495 11.2901 4.4879C11.2901 4.46888 11.2901 4.43085 11.2712 4.41183C11.2712 4.41183 11.2524 4.33576 11.2335 4.29773C11.1393 4.12658 10.9508 4.03149 10.7623 4.03149H10.7057C10.7057 4.03149 10.6303 4.03149 10.5926 4.05051L5.20163 5.80006C4.74924 5.97121 4.5796 6.1804 4.5796 6.59877V12.0186H0.602331C0.281887 11.9996 0.0179927 12.2278 -0.000856912 12.551C-0.000856912 12.5701 -0.000856912 12.6081 -0.000856912 12.6271V16.7157C-0.0197065 17.039 0.206489 17.3053 0.526932 17.3243C0.545782 17.3243 0.583481 17.3243 0.602331 17.3243H4.5419V33.1463C4.5419 38.8704 6.76615 41.7229 12.6284 41.7229H17.1523C17.6047 41.7229 17.8686 41.4757 17.7555 41.1144L16.191 36.227C16.059 35.7897 15.9082 35.6185 15.5501 35.6185" fill="white"></path>
</svg>
