<svg xmlns="http://www.w3.org/2000/svg" viewBox="0 0 1200 900" width="1200" height="900" preserveAspectRatio="xMidYMid slice" font-family="-apple-system,BlinkMacSystemFont,'Segoe UI',Roboto,sans-serif">
  <defs>
    <linearGradient id="bg" x1="0" y1="0" x2="1" y2="1"><stop offset="0%" stop-color="#0a0b10"/><stop offset="100%" stop-color="#13141d"/></linearGradient>
    <radialGradient id="wash" cx="50%" cy="0%" r="100%"><stop offset="0%" stop-color="#f2bf22" stop-opacity="0.12"/><stop offset="100%" stop-color="#000" stop-opacity="0"/></radialGradient>
    <linearGradient id="tile1" x1="0" y1="0" x2="1" y2="1"><stop offset="0%" stop-color="#f2bf22"/><stop offset="100%" stop-color="#da9e49"/></linearGradient>
    <linearGradient id="tile2" x1="0" y1="0" x2="1" y2="1"><stop offset="0%" stop-color="#3b82f6"/><stop offset="100%" stop-color="#1d4ed8"/></linearGradient>
    <linearGradient id="tile3" x1="0" y1="0" x2="1" y2="1"><stop offset="0%" stop-color="#a855f7"/><stop offset="100%" stop-color="#6b21a8"/></linearGradient>
    <linearGradient id="tile4" x1="0" y1="0" x2="1" y2="1"><stop offset="0%" stop-color="#22c55e"/><stop offset="100%" stop-color="#15803d"/></linearGradient>
    <linearGradient id="tile5" x1="0" y1="0" x2="1" y2="1"><stop offset="0%" stop-color="#ef4444"/><stop offset="100%" stop-color="#991b1b"/></linearGradient>
    <linearGradient id="tile6" x1="0" y1="0" x2="1" y2="1"><stop offset="0%" stop-color="#0ea5e9"/><stop offset="100%" stop-color="#0c4a6e"/></linearGradient>
  </defs>
  <rect width="1200" height="900" fill="url(#bg)"/>
  <rect width="1200" height="900" fill="url(#wash)"/>

  <!-- Frame -->
  <rect x="32" y="32" width="1136" height="836" rx="20" fill="rgba(255,255,255,0.025)" stroke="rgba(255,255,255,0.08)"/>
  <rect x="32" y="32" width="1136" height="60" rx="20" fill="rgba(255,255,255,0.03)"/>
  <rect x="32" y="80" width="1136" height="12" fill="rgba(255,255,255,0.03)"/>
  <circle cx="60" cy="62" r="6" fill="#ef4444"/><circle cx="80" cy="62" r="6" fill="#f2bf22"/><circle cx="100" cy="62" r="6" fill="#22c55e"/>
  <text x="138" y="68" font-size="15" font-weight="600" fill="#fff">Creative · weekly variants</text>
  <text x="376" y="68" font-size="13" fill="rgba(255,255,255,0.5)">Wk 47 · 6 live · 2 in test</text>

  <!-- Toolbar -->
  <g transform="translate(64,124)">
    <rect width="1072" height="48" rx="12" fill="rgba(255,255,255,0.03)" stroke="rgba(255,255,255,0.08)"/>
    <text x="20" y="30" font-size="11" letter-spacing="1.6" fill="rgba(255,255,255,0.5)">FILTER</text>
    <g transform="translate(72,12)">
      <rect width="80" height="24" rx="12" fill="#f2bf22"/><text x="40" y="16" font-size="11" font-weight="600" fill="#0a0b10" text-anchor="middle">All</text>
      <g transform="translate(92,0)"><rect width="80" height="24" rx="12" fill="rgba(255,255,255,0.06)"/><text x="40" y="16" font-size="11" fill="#fff" text-anchor="middle">Meta</text></g>
      <g transform="translate(184,0)"><rect width="80" height="24" rx="12" fill="rgba(255,255,255,0.06)"/><text x="40" y="16" font-size="11" fill="#fff" text-anchor="middle">TikTok</text></g>
      <g transform="translate(276,0)"><rect width="92" height="24" rx="12" fill="rgba(255,255,255,0.06)"/><text x="46" y="16" font-size="11" fill="#fff" text-anchor="middle">X / Twitter</text></g>
      <g transform="translate(380,0)"><rect width="92" height="24" rx="12" fill="rgba(255,255,255,0.06)"/><text x="46" y="16" font-size="11" fill="#fff" text-anchor="middle">YouTube</text></g>
    </g>
    <text x="940" y="30" font-size="11" fill="rgba(255,255,255,0.55)" text-anchor="end">CTR target ≥ 2.0%</text>
    <rect x="956" y="12" width="100" height="24" rx="12" fill="rgba(34,197,94,0.16)" stroke="rgba(34,197,94,0.4)"/>
    <text x="1006" y="28" font-size="11" font-weight="600" fill="#22c55e" text-anchor="middle">Avg 3.4%</text>
  </g>

  <!-- Variant grid (3 cols x 2 rows) -->
  <g transform="translate(64,200)">
    <!-- Variant 1 — winner -->
    <g>
      <rect width="346" height="305" rx="14" fill="rgba(255,255,255,0.04)" stroke="rgba(34,197,94,0.55)"/>
      <rect x="14" y="14" width="318" height="160" rx="10" fill="url(#tile1)"/>
      <text x="32" y="58" font-size="11" letter-spacing="2" fill="rgba(10,11,16,0.55)">META · STORY · 9:16</text>
      <text x="32" y="92" font-size="22" font-weight="800" fill="#0a0b10">Stop renting CAC.</text>
      <text x="32" y="118" font-size="13" fill="rgba(10,11,16,0.7)">Own the channel.</text>
      <rect x="32" y="132" width="86" height="26" rx="6" fill="#0a0b10"/>
      <text x="75" y="149" font-size="11" font-weight="600" fill="#fff" text-anchor="middle">Get demo →</text>

      <text x="14" y="194" font-size="11" letter-spacing="1.6" fill="rgba(255,255,255,0.45)">VARIANT 01 — HOOK A</text>
      <rect x="14" y="206" width="98" height="22" rx="6" fill="rgba(34,197,94,0.16)" stroke="rgba(34,197,94,0.4)"/>
      <text x="63" y="221" font-size="11" font-weight="600" fill="#22c55e" text-anchor="middle">WINNER · +47%</text>
      <text x="14" y="252" font-size="13" font-weight="600" fill="#fff">CTR 4.8% · CPL $12</text>
      <text x="14" y="272" font-size="11" fill="rgba(255,255,255,0.5)">14d run · scaled +24%</text>
      <text x="14" y="290" font-size="11" fill="rgba(255,255,255,0.45)">Spend $42k · 3,250 leads</text>
    </g>

    <!-- Variant 2 -->
    <g transform="translate(363,0)">
      <rect width="346" height="305" rx="14" fill="rgba(255,255,255,0.04)" stroke="rgba(255,255,255,0.08)"/>
      <rect x="14" y="14" width="318" height="160" rx="10" fill="url(#tile2)"/>
      <text x="32" y="58" font-size="11" letter-spacing="2" fill="rgba(255,255,255,0.7)">TIKTOK · 9:16 · NATIVE</text>
      <text x="32" y="92" font-size="20" font-weight="800" fill="#fff">3 ways CAC lies</text>
      <text x="32" y="118" font-size="13" fill="rgba(255,255,255,0.85)">to your CFO</text>
      <rect x="32" y="132" width="120" height="26" rx="6" fill="#fff"/>
      <text x="92" y="149" font-size="11" font-weight="600" fill="#0a0b10" text-anchor="middle">Watch · 38s</text>

      <text x="14" y="194" font-size="11" letter-spacing="1.6" fill="rgba(255,255,255,0.45)">VARIANT 02 — HOOK B</text>
      <rect x="14" y="206" width="62" height="22" rx="6" fill="rgba(242,191,34,0.16)" stroke="rgba(242,191,34,0.4)"/>
      <text x="45" y="221" font-size="11" font-weight="600" fill="#f2bf22" text-anchor="middle">LIVE</text>
      <text x="14" y="252" font-size="13" font-weight="600" fill="#fff">CTR 3.1% · CPL $18</text>
      <text x="14" y="272" font-size="11" fill="rgba(255,255,255,0.5)">7d run · holding</text>
      <text x="14" y="290" font-size="11" fill="rgba(255,255,255,0.45)">Spend $18k · 980 leads</text>
    </g>

    <!-- Variant 3 -->
    <g transform="translate(726,0)">
      <rect width="346" height="305" rx="14" fill="rgba(255,255,255,0.04)" stroke="rgba(255,255,255,0.08)"/>
      <rect x="14" y="14" width="318" height="160" rx="10" fill="url(#tile3)"/>
      <text x="32" y="58" font-size="11" letter-spacing="2" fill="rgba(255,255,255,0.7)">X / TWITTER · 1:1 · STATIC</text>
      <text x="32" y="92" font-size="22" font-weight="800" fill="#fff">$84 CAC.</text>
      <text x="32" y="118" font-size="13" fill="rgba(255,255,255,0.85)">Down from $162 in 90 days.</text>
      <rect x="32" y="132" width="106" height="26" rx="6" fill="#fff"/>
      <text x="85" y="149" font-size="11" font-weight="600" fill="#0a0b10" text-anchor="middle">See how →</text>

      <text x="14" y="194" font-size="11" letter-spacing="1.6" fill="rgba(255,255,255,0.45)">VARIANT 03 — PROOF FOCUS</text>
      <rect x="14" y="206" width="62" height="22" rx="6" fill="rgba(242,191,34,0.16)" stroke="rgba(242,191,34,0.4)"/>
      <text x="45" y="221" font-size="11" font-weight="600" fill="#f2bf22" text-anchor="middle">LIVE</text>
      <text x="14" y="252" font-size="13" font-weight="600" fill="#fff">CTR 2.6% · CPL $22</text>
      <text x="14" y="272" font-size="11" fill="rgba(255,255,255,0.5)">10d run · scaling</text>
      <text x="14" y="290" font-size="11" fill="rgba(255,255,255,0.45)">Spend $14k · 580 leads</text>
    </g>
  </g>

  <g transform="translate(64,520)">
    <!-- Variant 4 — TEST -->
    <g>
      <rect width="346" height="304" rx="14" fill="rgba(255,255,255,0.04)" stroke="rgba(255,255,255,0.08)"/>
      <rect x="14" y="14" width="318" height="160" rx="10" fill="url(#tile4)"/>
      <text x="32" y="58" font-size="11" letter-spacing="2" fill="rgba(255,255,255,0.7)">META · 4:5 · CAROUSEL</text>
      <text x="32" y="92" font-size="22" font-weight="800" fill="#fff">5 frames.</text>
      <text x="32" y="118" font-size="13" fill="rgba(255,255,255,0.85)">One product. Real numbers.</text>
      <g transform="translate(32,132)">
        <rect width="22" height="6" rx="3" fill="#fff"/>
        <rect x="28" width="22" height="6" rx="3" fill="rgba(255,255,255,0.4)"/>
        <rect x="56" width="22" height="6" rx="3" fill="rgba(255,255,255,0.4)"/>
        <rect x="84" width="22" height="6" rx="3" fill="rgba(255,255,255,0.4)"/>
        <rect x="112" width="22" height="6" rx="3" fill="rgba(255,255,255,0.4)"/>
      </g>

      <text x="14" y="194" font-size="11" letter-spacing="1.6" fill="rgba(255,255,255,0.45)">VARIANT 04 — CAROUSEL TEST</text>
      <rect x="14" y="206" width="78" height="22" rx="6" fill="rgba(96,165,250,0.16)" stroke="rgba(96,165,250,0.4)"/>
      <text x="53" y="221" font-size="11" font-weight="600" fill="#60a5fa" text-anchor="middle">IN TEST</text>
      <text x="14" y="252" font-size="13" font-weight="600" fill="#fff">CTR 1.9% · CPL $28</text>
      <text x="14" y="272" font-size="11" fill="rgba(255,255,255,0.5)">3d run · 14d window</text>
      <text x="14" y="290" font-size="11" fill="rgba(255,255,255,0.45)">A/B vs Variant 01</text>
    </g>

    <!-- Variant 5 — KILLED -->
    <g transform="translate(363,0)">
      <rect width="346" height="304" rx="14" fill="rgba(255,255,255,0.025)" stroke="rgba(239,68,68,0.4)"/>
      <rect x="14" y="14" width="318" height="160" rx="10" fill="url(#tile5)" opacity="0.55"/>
      <text x="32" y="58" font-size="11" letter-spacing="2" fill="rgba(255,255,255,0.7)">YOUTUBE · 16:9 · PRE-ROLL</text>
      <text x="32" y="92" font-size="20" font-weight="800" fill="#fff">Save 30% on…</text>
      <text x="32" y="118" font-size="13" fill="rgba(255,255,255,0.85)">(generic discount hook)</text>

      <text x="14" y="194" font-size="11" letter-spacing="1.6" fill="rgba(255,255,255,0.45)">VARIANT 05 — DISCOUNT HOOK</text>
      <rect x="14" y="206" width="74" height="22" rx="6" fill="rgba(239,68,68,0.16)" stroke="rgba(239,68,68,0.4)"/>
      <text x="51" y="221" font-size="11" font-weight="600" fill="#ef4444" text-anchor="middle">KILLED</text>
      <text x="14" y="252" font-size="13" font-weight="600" fill="rgba(255,255,255,0.7)">CTR 0.6% · CPL $94</text>
      <text x="14" y="272" font-size="11" fill="rgba(255,255,255,0.45)">5d run · target missed</text>
      <text x="14" y="290" font-size="11" fill="rgba(255,255,255,0.4)">Wk 46 audit · removed</text>
    </g>

    <!-- Variant 6 — winner -->
    <g transform="translate(726,0)">
      <rect width="346" height="304" rx="14" fill="rgba(255,255,255,0.04)" stroke="rgba(34,197,94,0.55)"/>
      <rect x="14" y="14" width="318" height="160" rx="10" fill="url(#tile6)"/>
      <text x="32" y="58" font-size="11" letter-spacing="2" fill="rgba(255,255,255,0.8)">LINKEDIN · 1:1 · DOC</text>
      <text x="32" y="92" font-size="22" font-weight="800" fill="#fff">CFO Playbook</text>
      <text x="32" y="118" font-size="13" fill="rgba(255,255,255,0.85)">12 pages · download free</text>
      <rect x="32" y="132" width="120" height="26" rx="6" fill="#fff"/>
      <text x="92" y="149" font-size="11" font-weight="600" fill="#0a0b10" text-anchor="middle">Download · PDF</text>

      <text x="14" y="194" font-size="11" letter-spacing="1.6" fill="rgba(255,255,255,0.45)">VARIANT 06 — LEAD GEN</text>
      <rect x="14" y="206" width="98" height="22" rx="6" fill="rgba(34,197,94,0.16)" stroke="rgba(34,197,94,0.4)"/>
      <text x="63" y="221" font-size="11" font-weight="600" fill="#22c55e" text-anchor="middle">WINNER · +18%</text>
      <text x="14" y="252" font-size="13" font-weight="600" fill="#fff">CTR 3.8% · CPL $52</text>
      <text x="14" y="272" font-size="11" fill="rgba(255,255,255,0.5)">B2B · 21d sales cycle</text>
      <text x="14" y="290" font-size="11" fill="rgba(255,255,255,0.45)">Pipeline-$ attributed: $880k</text>
    </g>
  </g>
</svg>
